<svg width="358" height="384" xmlns="http://www.w3.org/2000/svg" xmlns:xlink="http://www.w3.org/1999/xlink" xml:space="preserve" overflow="hidden"><g transform="translate(-464 -400)"><g><g><g><g><path d="M-8407.39-2451.83C-8409.44-2485.47-8420.37-2523.61-8452.5-2540.13-8523.32-2568.56-8616.46-2496.97-8621.41-2423.84-8623.1-2398.8-8613.87-2376.36-8588.48-2369.4-8582.82-2361.92-8574.31-2357.35-8565.87-2353.38-8534.57-2337.13-8502.04-2325.16-8478.86-2326.56-8427.76-2329.66-8399.49-2373.99-8407.39-2451.83L-8407.39-2451.83Z" fill="#FFFFFF" fill-rule="nonzero" fill-opacity="1" transform="matrix(1 0 0 1.00075 9173.64 3002.93)"/><path d="M-8384.52-2472.75C-8391.81-2492.06-8398.77-2511.67-8407.82-2530.19-8436.31-2583.92-8488.13-2583.92-8514.88-2576.9-8528.77-2582.88-8554.77-2581.19-8569.23-2575.79-8592.63-2567.05-8621.19-2532.68-8630.93-2517.23-8655.23-2478.99-8669.26-2425.23-8644.67-2383.81-8658.4-2368.34-8674.92-2354.63-8682.28-2334.59-8695.73-2305.25-8679.43-2265.28-8645.42-2262.4-8644.67-2262.29-8643.91-2262.2-8643.15-2262.12-8635.36-2246.75-8612.61-2241.81-8596.74-2241.18-8584.95-2232.58-8570.52-2218.69-8554.87-2222.08-8552.35-2220.38-8548.17-2220.73-8545.64-2222.12-8530.97-2230.93-8531.47-2250.11-8533.6-2265.04-8537.82-2290.95-8535.76-2319.2-8548.71-2342.79-8548.74-2346.27-8551.81-2348.22-8554.08-2350.44-8555.05-2351.58-8556.14-2352.62-8557.29-2353.56-8569.01-2364.93-8577.01-2379.31-8583.83-2393.93-8584.08-2394.31-8584.62-2394.38-8584.95-2394.07-8585.74-2393.24-8586.25-2392.32-8586.14-2391.35L-8586.57-2391.29C-8586.71-2392.9-8588.3-2394.01-8589.89-2393.62-8592.63-2393.15-8594.86-2392.97-8597.25-2393.88-8596.05-2401.74-8595.04-2409.63-8594.18-2417.54-8590.83-2416.72-8587.65-2415.18-8585.13-2412.86-8583.65-2411.51-8582.64-2409.69-8580.84-2408.74-8578.85-2407.58-8576.26-2409.57-8576.87-2411.78-8579-2417.94-8587.94-2420.49-8593.85-2420.51-8593.35-2425.35-8592.95-2430.2-8592.63-2435.06-8589.28-2436.08-8585.71-2436.36-8582.24-2435.89-8577.16-2431.89-8572.29-2427.73-8567.39-2423.55-8565.33-2421.78-8562.77-2423.53-8563.13-2426.03-8565.94-2446.56-8553.4-2462.88-8538.65-2475.53-8522.38-2489.53-8492.74-2491.16-8473.38-2515.42-8429.85-2507.01-8425.6-2480.37-8425.42-2439.48-8423-2401.5-8419.25-2351.19-8461.58-2333.77-8481.96-2324.91-8504.93-2331.18-8522.2-2343.89-8522.71-2344.23-8523.5-2343.51-8523.1-2342.98-8510.38-2326.22-8485.24-2321.1-8465.73-2326.47-8472.66-2306.83-8465.62-2283.71-8449.11-2271.1-8442.33-2265.75-8433.96-2261.44-8429.24-2253.93-8424.95-2247.06-8426.25-2239.33-8433.6-2235.36-8435.44-2234.35-8436.16-2231.11-8434.32-2229.68-8430.1-2225.91-8417.59-2219.44-8414.92-2218.87-8398.62-2216.94-8387.7-2228.9-8380.67-2243-8372.44-2259.55-8374.57-2279.72-8383.66-2295.48-8390.94-2308.13-8405.26-2320.59-8399.56-2336.6-8391.81-2354.82-8371.11-2364.45-8364.91-2383.73-8361.73-2393.18-8363.32-2403.41-8365.7-2412.84-8370.82-2433.11-8377.46-2453.11-8384.52-2472.75Z" fill="#000000" fill-rule="nonzero" fill-opacity="1" transform="matrix(1 0 0 1.00075 9173.64 3002.93)"/></g></g></g></g></g></svg>