<svg width="504" height="586" xmlns="http://www.w3.org/2000/svg" xmlns:xlink="http://www.w3.org/1999/xlink" xml:space="preserve" overflow="hidden"><g transform="translate(-136 -66)"><g><g><g><g><path d="M-29375.1-3926.23C-29328.3-3926.23-29280-3889.98-29262.8-3866.84-29248.4-3847.39-29240.6-3759.45-29240.6-3700.01-29240.6-3687.58-29233.8-3664.15-29235.8-3652.25-29243.1-3608.68-29275.1-3572.14-29338.3-3572.14-29401.6-3572.14-29446.9-3597.22-29494-3664.53-29505.3-3665.66-29527.8-3682.03-29528-3709.64-29528.2-3737.25-29506-3747.29-29506-3747.29-29506-3747.29-29513.9-3856.25-29494-3884.61-29474.1-3912.99-29421.9-3926.23-29375.1-3926.23Z" fill="#FFFFFF" fill-rule="nonzero" fill-opacity="1" transform="matrix(1 0 0 1.00041 29782.1 4026.8)"/><path d="M-29335-3563.21C-29360.7-3562.7-29395.2-3574.36-29405.3-3597.48-29359-3561.06-29261.9-3574.35-29245.4-3637.45-29242.1-3649.52-29242.6-3662.88-29247.4-3674.32-29248.7-3678.5-29252.1-3683.82-29248.3-3687.66-29241.1-3738.84-29249.9-3790.65-29258.4-3841.31-29260.1-3839.62-29262.7-3840.1-29264.4-3841.4-29278.6-3840.09-29293-3844.99-29304.2-3853.55-29305.3-3848.05-29305.8-3842.46-29305.8-3836.86-29305.7-3834.45-29307.9-3832.43-29310.3-3832.5-29324.4-3837.98-29337.3-3847.33-29349.9-3855.92-29351.2-3848.89-29352.6-3841.77-29354-3834.63-29354.2-3833.71-29354.7-3832.89-29355.5-3832.36-29356.9-3831.42-29358.8-3831.26-29360.2-3832.1-29369.1-3837.22-29376.8-3844-29383-3852.06-29387.5-3845.08-29389.1-3835.89-29397.2-3832.86-29403.1-3831.14-29406.8-3837.07-29407.8-3842.14-29416.6-3821.04-29430.1-3802.04-29444.4-3784.56-29446.7-3781.41-29451.4-3784.22-29451.7-3787.59-29451.9-3789.36-29452.1-3791.2-29452.2-3793.21-29458-3781.66-29463-3772.33-29467.9-3763.84-29465.9-3756.32-29464.2-3748.51-29462.7-3741.04L-29462.7-3741.03C-29462-3736.51-29459.1-3731.31-29461.9-3727.04-29464.8-3723.74-29470.4-3723.88-29474.6-3723.08-29479.4-3722.89-29482.7-3726.74-29484.2-3730.59-29485.1-3732.18-29485.9-3733.88-29487.1-3735.25-29487.7-3734.37-29488.6-3735.21-29488-3736.23-29489.9-3738.25-29492.1-3739.94-29494.2-3741.75-29530-3746.05-29524-3688.65-29501.4-3677.29-29496.1-3675.06-29480.8-3676.56-29485.8-3666.86-29484.5-3665.08-29483.2-3663.44-29481.9-3661.41-29470.9-3649.67-29462.9-3639.1-29450.9-3627.55-29446-3622.46-29438.5-3619.07-29436-3612.17-29434.8-3608.76-29436-3604.36-29439.7-3603.16-29445.6-3600.77-29451.1-3605.8-29455.2-3609.7-29463.6-3617.27-29471.1-3625.91-29477-3635.53-29486-3629.14-29500-3633.12-29502.7-3644.25-29503.7-3644.01-29504.8-3643.89-29505.8-3643.9-29509.9-3640.88-29516.6-3641.19-29518.6-3646.44-29521-3653.74-29516.1-3660.92-29513.6-3667.46-29534.4-3685.23-29542.1-3724.66-29520.9-3744.92-29537.1-3789.99-29529.5-3843.96-29503.2-3883.76-29511.2-3891.75-29511.4-3906.52-29498.7-3909.53-29503.7-3928.31-29484.8-3933.08-29474.5-3919.18-29424-3946.88-29362.9-3946.55-29307.2-3936.93-29305.3-3936.64-29303.7-3935.21-29303.2-3933.31-29289.4-3932.67-29275.9-3931.68-29262.1-3930.93-29255.6-3930.74-29254.3-3923.06-29258-3918.72-29245.5-3924.33-29234.1-3913.32-29240.2-3900.81-29217.5-3901.01-29226.7-3873.38-29238.6-3864.17-29235.5-3857.3-29238.7-3850.64-29246.2-3847.36-29245-3841.62-29240.5-3828.69-29247.9-3826.02-29232.9-3781.1-29229.6-3730.37-29234.4-3682.86-29204.5-3619.44-29273.9-3560.67-29335-3563.21ZM-29486-3703.05C-29494.8-3702.44-29500.9-3728.18-29508.1-3719.47-29508.2-3719.11-29508.4-3718.8-29508.8-3718.82-29510.8-3719.67-29508.5-3723.86-29507.3-3724.95-29501.8-3730.44-29494-3725.83-29489.3-3721.62-29486.1-3719.1-29482.4-3716.38-29480.5-3712.78-29478.3-3708.8-29481.4-3703.11-29486-3703.05Z" fill="#000000" fill-rule="nonzero" fill-opacity="1" transform="matrix(1 0 0 1.00041 29782.1 4026.8)"/></g></g></g></g></g></svg>