<svg width="244" height="291" xmlns="http://www.w3.org/2000/svg" xmlns:xlink="http://www.w3.org/1999/xlink" xml:space="preserve" overflow="hidden"><g transform="translate(-948 -33)"><g><g><g><g><path d="M-15380.5-83.485C-15353.4-84.3094-15328.5-73.8507-15307.5-49.9645-15290-30.0009-15287.8 0.558242-15287.8 29.3983-15287.8 39.7498-15277.2 59.8355-15280.5 81.8953-15285.5 111.231-15312.5 147.036-15355.1 147.036-15397.7 147.036-15409.3 132-15419.5 125.179-15441.6 110.484-15452.1 88.1764-15452.1 88.1764-15452.1 88.1764-15465.5 90.9492-15469.6 88.4241-15480.8 81.0302-15473.4 73.3885-15474.3 66.612-15475.1 62.5453-15482.3 55.1958-15482.3 51.4544-15482.3 37.8828-15469.9 38.8108-15465.1 35.5575-15470.1 31.683-15473.1 26.2707-15474.5 20.0635-15478.3 3.75612-15471.1-18.0449-15461.4-31.8753-15448-50.9738-15420.9-82.2502-15380.5-83.485Z" fill="#FFFFFF" fill-rule="nonzero" fill-opacity="1" transform="matrix(1 0 0 1.00221 16453.1 159.974)"/><path d="M-15353.7 148.7C-15360.6 148.659-15388.2 146.748-15385.6 136.655-15382.6 131.815-15376.5 135.257-15372.4 136.378-15361.3 139.583-15349.3 139.727-15338.1 137.257-15303.1 130.259-15280.3 95.3707-15285.1 60.4676-15285.8 53.0035-15289.5 46.3082-15290.3 38.9069-15291.3 26.3224-15290.5 13.8452-15290.6 1.17194-15291.3 1.27915-15292 0.76897-15292 0.0554545-15292.3-2.75055-15292.9-5.40867-15293.3-8.18879-15299.3-38.5039-15319.3-66.5011-15350.5-74.871-15350.7-74.8045-15350.9-74.7416-15351-74.6788L-15351-74.6788C-15366-68.2239-15379.5-58.8521-15391.3-47.5356-15391.7-47.3027-15391.9-46.9219-15392-46.4894-15392-45.8129-15391.8-45.1511-15391.3-44.652-15391.2-44.7259-15391-44.5928-15391-44.4265-15391.2-43.4209-15393-43.8202-15393.5-44.5744-15395.2-46.8036-15392.9-49.0847-15391.4-50.7816-15382.8-61.4695-15371.6-70.4088-15359.5-76.982-15366.2-78.1946-15373.1-78.5717-15379.9-78.1835-15390.2-72.5678-15398.7-67.2331-15407.9-60.268-15408.4-59.7024-15409.7-57.1552-15408-57.1995-15407.9-57.2032-15407.9-57.1404-15407.9-57.0627-15408-56.6228-15408.9-56.8446-15409.2-57.1958-15410.7-61.1959-15405.3-64.0056-15402.6-66.3495-15398.2-70.113-15393.6-73.7804-15388.8-77.2519-15423.6-71.7952-15450-48.4266-15464.7-15.4903-15471.1 1.12018-15479.1 19.3647-15466.2 33.587-15461.4 33.0435-15449.6 33.2875-15451.3 40.0345-15453 36.4447-15458.5 37.3172-15462.1 38.0455-15468.5 38.6703-15477.9 42.4412-15478.8 49.5616-15479.6 55.0885-15474 58.3308-15472.1 62.9927-15467.3 71.285-15478.8 85.7216-15462.7 85.7993-15458 86.2577-15453.9 83.326-15449.7 84.6865-15442.3 96.7534-15435.5 108.573-15422.7 116.299-15420 118.451-15414.1 121.335-15414.6 125.235-15425.2 132.947-15450.6 102.384-15454 92.7976-15465.9 96.2506-15482.2 90.5979-15479.1 75.7139-15478.5 71.9726-15477.1 68.2867-15479.3 64.7192-15491.4 51.9313-15484.8 36.2155-15467.9 33.794-15485.9 20.8953-15477.7-6.1037-15470.1-23.0543-15453.6-60.5859-15415.2-88.1173-15373.7-87.3187-15367.9-90.7976-15332.7-110.454-15329.1-102.805-15328.9-101.896-15329.4-100.957-15330.3-100.617-15341-95.319-15352-91.4371-15363-86.6237-15357.3-85.9804-15351.7-84.8602-15346.3-83.2779-15335.1-87.6662-15323.8-91.1118-15311.7-91.7181-15308.5-91.9769-15297.9-90.4427-15303.8-86.0618-15314.6-82.8195-15326.4-83.2484-15336.7-79.6808-15311.7-66.4789-15290.2-44.3045-15289.2-15.7676-15285.5 0.103515-15286.9 17.3314-15284.5 33.5611-15280.5 45.3138-15275.1 56.7965-15275.6 69.5955-15274.1 112.591-15310.7 149.786-15353.7 148.7Z" fill="#000000" fill-rule="nonzero" fill-opacity="1" transform="matrix(1 0 0 1.00221 16453.1 159.974)"/><path d="M-15446.2 62.2422C-15452.5 61.6987-15456.7 55.5063-15463.4 54.5821L-15463.4 54.5821C-15464.5 54.253-15465.7 53.9129-15466.9 53.6874-15467.5 53.2844-15468 53.5284-15468.2 54.449-15467.9 54.534-15467.9 54.9924-15468.3 54.9628-15469.5 54.8335-15470.2 53.3621-15469.7 52.2493-15468.7 49.8906-15464.8 49.8795-15462.5 49.9535-15458.7 50.105-15454.9 50.9184-15451.4 52.3676-15448.3 53.1365-15440.9 60.268-15446.2 62.2422Z" fill="#000000" fill-rule="nonzero" fill-opacity="1" transform="matrix(1 0 0 1.00221 16453.1 159.974)"/></g></g></g></g></g></svg>